<?xml version="1.0" standalone="no"?>
<!DOCTYPE svg PUBLIC "-//W3C//DTD SVG 20010904//EN"
 "http://www.w3.org/TR/2001/REC-SVG-20010904/DTD/svg10.dtd">
<svg version="1.0" xmlns="http://www.w3.org/2000/svg"
 width="512.000000pt" height="512.000000pt" viewBox="0 0 512.000000 512.000000"
 preserveAspectRatio="xMidYMid meet">

<g transform="translate(0.000000,512.000000) scale(0.100000,-0.100000)"
fill="#000000" stroke="none">
<path d="M860 5111 c-63 -21 -113 -57 -212 -158 l-108 -108 620 -620 620 -620
109 109 c139 139 166 190 159 305 -3 52 -12 90 -27 121 -35 69 -889 919 -955
950 -52 24 -162 36 -206 21z"/>
<path d="M279 4583 c-178 -181 -229 -266 -265 -444 -26 -130 -16 -239 41 -434
203 -698 562 -1349 1064 -1930 118 -137 532 -549 671 -669 494 -425 1018 -733
1624 -956 232 -85 438 -141 546 -147 152 -9 294 26 425 104 59 36 335 297 335
318 0 5 -277 287 -615 625 l-615 615 -142 -142 c-79 -77 -153 -146 -166 -152
-31 -16 -53 -8 -155 61 -297 200 -524 393 -878 747 -332 333 -516 550 -719
850 -94 138 -97 129 85 311 l150 150 -615 615 c-338 338 -620 615 -625 615 -6
0 -72 -62 -146 -137z"/>
<path d="M3875 2022 c-43 -22 -89 -60 -165 -136 l-105 -106 620 -620 620 -620
108 108 c138 136 162 178 162 287 0 134 9 123 -489 622 -304 304 -455 448
-486 464 -32 16 -68 24 -125 26 -73 4 -86 1 -140 -25z"/>
</g>
</svg>
